<?xml version="1.0" standalone="no"?>
<!DOCTYPE svg PUBLIC "-//W3C//DTD SVG 20010904//EN"
 "http://www.w3.org/TR/2001/REC-SVG-20010904/DTD/svg10.dtd">
<svg version="1.0" xmlns="http://www.w3.org/2000/svg"
 width="1092.000000pt" height="1092.000000pt" viewBox="0 0 1092.000000 1092.000000"
 preserveAspectRatio="xMidYMid meet">
<metadata>
Created by potrace 1.11, written by Peter Selinger 2001-2013
</metadata>
<g transform="translate(0.000000,1092.000000) scale(0.100000,-0.100000)"
fill="#000000" stroke="none">
<path d="M5185 10230 c-11 -4 -23 -6 -26 -4 -11 6 -23 -14 -104 -171 -42 -82
-96 -183 -118 -225 -90 -166 -157 -286 -165 -295 -4 -5 -21 -36 -37 -67 -16
-32 -33 -58 -37 -58 -4 0 -8 -5 -8 -11 0 -10 -69 -127 -189 -319 -22 -36 -58
-94 -80 -130 -21 -36 -49 -76 -60 -89 -12 -13 -21 -28 -21 -33 0 -4 -12 -26
-27 -47 -16 -21 -35 -49 -43 -61 -8 -12 -27 -40 -42 -61 -16 -21 -28 -43 -28
-48 0 -6 -6 -14 -12 -18 -7 -4 -38 -44 -68 -88 -30 -44 -59 -85 -65 -92 -5 -7
-39 -53 -75 -104 -36 -50 -86 -119 -112 -152 -27 -34 -51 -67 -55 -72 -21 -27
-90 -112 -105 -129 -10 -11 -18 -23 -18 -26 0 -4 -10 -18 -22 -32 -13 -13 -38
-43 -56 -66 -19 -22 -43 -51 -54 -64 -11 -13 -32 -38 -46 -57 -15 -18 -36 -43
-47 -55 -25 -27 -126 -143 -153 -174 -114 -131 -594 -622 -610 -622 -4 0 -14
-9 -22 -20 -19 -26 -220 -205 -230 -205 -5 0 -30 -22 -57 -50 -26 -27 -65 -63
-86 -80 -21 -16 -50 -40 -65 -53 -15 -13 -48 -39 -75 -59 -26 -21 -47 -41 -47
-45 0 -4 -4 -8 -10 -8 -5 0 -18 -7 -27 -16 -10 -8 -52 -41 -93 -72 -41 -31
-76 -60 -78 -64 -2 -5 -8 -8 -13 -8 -8 0 -74 -47 -126 -90 -7 -6 -24 -15 -37
-22 -14 -6 -23 -15 -20 -19 3 -5 0 -9 -6 -9 -12 0 -71 -39 -82 -55 -5 -7 -8
-7 -8 0 0 6 -5 2 -11 -7 -5 -10 -14 -18 -20 -18 -9 0 -67 -38 -79 -51 -3 -3
-21 -14 -40 -25 -19 -10 -43 -27 -54 -36 -11 -10 -24 -18 -29 -18 -4 0 -23
-11 -41 -25 -18 -14 -36 -25 -39 -25 -4 0 -37 -20 -74 -43 -37 -24 -75 -47
-83 -50 -8 -4 -28 -16 -45 -27 -16 -10 -41 -25 -55 -33 -65 -36 -143 -78 -235
-127 -55 -29 -116 -62 -135 -74 -19 -11 -36 -20 -38 -18 -1 1 -38 -16 -82 -38
-44 -22 -82 -40 -85 -40 -3 1 -22 -8 -43 -18 -65 -33 -249 -117 -267 -121 -5
-2 -23 -8 -40 -15 -16 -7 -51 -21 -77 -31 -50 -19 -53 -30 -10 -47 63 -25 205
-60 250 -62 12 -1 22 -4 22 -9 0 -4 3 -6 7 -5 5 1 32 -2 62 -6 121 -18 224
-23 256 -11 11 4 34 12 50 17 35 13 55 21 195 81 58 25 120 51 137 58 18 8 33
17 33 20 0 3 6 6 14 6 16 0 374 176 502 248 50 27 108 59 130 70 21 11 41 23
44 26 3 3 25 17 50 30 25 14 56 32 70 40 138 88 242 149 251 149 7 0 10 -3 6
-6 -3 -3 -1 -18 4 -33 13 -33 50 -167 64 -231 2 -8 4 -15 5 -15 1 0 4 -10 6
-22 2 -13 6 -33 8 -45 2 -13 5 -23 6 -23 3 0 61 -297 66 -340 2 -16 8 -59 13
-95 15 -97 23 -169 27 -230 1 -30 3 -55 4 -55 7 0 13 -190 13 -405 1 -227 -4
-341 -18 -475 -2 -22 -6 -65 -9 -95 -3 -30 -7 -68 -10 -85 -3 -16 -8 -48 -11
-70 -2 -22 -7 -53 -11 -70 -3 -16 -12 -64 -19 -105 -15 -82 -17 -93 -40 -192
-3 -13 -8 -36 -11 -52 -2 -16 -7 -32 -9 -36 -2 -4 -7 -22 -10 -41 -3 -18 -9
-36 -13 -39 -4 -3 -8 -18 -10 -35 -2 -28 -8 -47 -28 -100 -4 -11 -8 -26 -10
-33 -1 -7 -16 -55 -33 -106 -30 -92 -39 -142 -23 -132 5 3 19 7 33 10 13 3 33
7 44 10 63 15 213 49 300 67 55 11 109 22 120 24 48 11 72 16 105 21 19 3 54
10 78 15 42 9 90 17 141 24 14 2 26 4 26 5 0 1 12 3 26 5 31 4 86 13 114 19
11 2 45 7 75 11 30 4 64 9 75 11 11 2 38 6 60 9 83 11 131 17 149 21 10 2 44
6 75 9 31 4 67 8 81 10 32 5 154 17 200 20 19 2 66 6 105 10 38 4 90 8 115 10
25 2 45 4 45 5 0 1 188 13 233 14 23 0 42 4 42 9 0 4 8 3 19 -2 10 -6 21 -8
24 -5 3 3 83 8 179 10 95 3 201 6 235 7 48 2 63 -1 66 -13 7 -31 -5 -612 -18
-810 -2 -41 -7 -120 -10 -175 -10 -161 -13 -216 -20 -285 -10 -108 -18 -213
-19 -252 0 -21 -3 -38 -6 -38 -3 0 -6 -26 -8 -58 -2 -56 -9 -127 -12 -127 0 0
-3 -27 -5 -60 -2 -33 -6 -74 -10 -90 -3 -17 -8 -55 -10 -85 -3 -30 -12 -100
-20 -154 -8 -55 -15 -104 -15 -110 0 -20 52 37 152 169 4 6 18 24 31 40 40 51
184 280 231 367 42 77 72 151 82 202 11 56 17 93 18 119 1 15 3 27 6 27 3 0 5
12 6 28 0 32 12 136 18 172 3 14 7 52 11 85 5 58 8 81 20 190 11 101 18 181
19 232 1 29 3 53 6 53 3 0 6 15 6 33 1 17 4 70 8 117 9 112 16 216 21 315 2
44 4 86 4 93 1 11 30 12 149 7 296 -13 446 -23 612 -41 25 -3 66 -6 93 -7 26
0 47 -4 47 -7 0 -3 19 -5 43 -4 23 0 46 -1 51 -4 4 -3 25 -6 45 -7 20 -2 59
-6 86 -10 28 -4 61 -8 75 -10 71 -8 284 -39 335 -49 11 -2 45 -7 75 -12 30 -4
57 -8 60 -9 3 0 28 -5 55 -10 28 -5 52 -9 55 -10 3 -1 28 -5 55 -9 28 -4 57
-10 65 -13 8 -3 25 -7 38 -9 12 -1 48 -8 80 -15 31 -6 64 -13 72 -14 8 -2 17
-4 20 -5 3 -1 8 -2 11 -2 3 1 38 -7 77 -17 39 -10 73 -16 76 -13 3 2 11 0 18
-5 7 -6 45 -16 83 -24 104 -20 115 -24 115 -50 0 -10 4 -19 8 -19 18 0 182
224 182 249 0 6 5 11 10 11 6 0 10 5 10 10 0 6 27 53 60 105 33 52 60 99 60
104 0 5 3 11 8 13 8 4 48 83 57 115 8 29 8 91 -1 123 -3 14 -7 34 -9 45 -1 11
-7 45 -14 76 -6 30 -14 71 -16 90 -3 19 -9 58 -15 88 -5 30 -7 58 -4 63 3 4 2
8 -3 8 -4 0 -8 10 -9 23 0 12 -3 40 -7 62 -3 22 -9 67 -13 100 -3 33 -8 62 -9
65 -2 3 -6 39 -10 80 -4 41 -9 89 -11 105 -3 27 -7 79 -19 215 -33 388 -24
1085 19 1458 3 28 8 73 11 100 11 100 15 128 21 162 3 19 6 43 5 54 0 18 1 18
22 0 12 -11 25 -23 29 -29 5 -7 8 -7 8 0 0 6 3 6 8 -1 10 -15 249 -174 262
-174 5 0 10 -4 10 -10 0 -5 4 -10 10 -10 5 0 36 -17 67 -37 32 -21 60 -38 63
-38 17 -4 60 -30 60 -37 0 -4 8 -8 18 -8 10 0 22 -4 28 -9 18 -18 218 -122
230 -120 4 0 10 -4 14 -11 4 -6 13 -13 21 -14 8 -2 50 -20 94 -40 117 -55 153
-71 225 -100 36 -15 74 -31 85 -35 44 -19 185 -73 200 -77 6 -1 37 -12 70 -24
33 -12 67 -24 75 -25 8 -2 48 -15 88 -29 39 -14 72 -22 72 -19 0 3 6 1 13 -5
6 -5 28 -13 47 -18 42 -9 41 -9 60 -16 19 -8 99 -28 125 -33 11 -2 20 -4 20
-5 0 -1 8 -3 17 -5 20 -4 229 -52 268 -62 36 -9 38 -9 125 -28 110 -23 139
-27 220 -27 82 -1 155 23 136 45 -9 12 -88 35 -141 42 -8 1 -22 5 -30 8 -8 3
-46 13 -85 21 -38 9 -110 27 -160 41 -49 14 -94 27 -100 29 -5 1 -37 11 -70
21 -33 10 -63 19 -67 21 -5 1 -10 3 -13 4 -3 1 -8 3 -12 5 -5 1 -15 4 -23 8
-8 3 -42 15 -75 27 -33 11 -67 23 -75 27 -8 3 -20 7 -25 8 -6 2 -31 12 -55 23
-25 11 -81 35 -125 53 -44 18 -83 37 -86 42 -3 5 -10 9 -15 9 -19 1 -280 123
-294 138 -3 3 -25 16 -50 29 -88 45 -155 84 -182 102 -14 11 -31 19 -37 19 -6
0 -11 4 -11 8 0 5 -12 14 -27 21 -16 7 -54 30 -85 52 -32 21 -62 39 -67 39 -5
0 -11 3 -13 8 -1 4 -46 36 -98 72 -52 35 -102 70 -110 77 -8 6 -55 42 -105 79
-91 69 -186 145 -226 183 -13 12 -26 21 -29 21 -4 0 -30 23 -58 50 -28 28 -54
50 -57 50 -3 0 -29 23 -59 51 -53 49 -59 61 -43 87 16 24 -5 33 -24 11 l-19
-22 -193 194 c-178 180 -257 265 -367 394 -24 28 -51 59 -61 70 -27 29 -113
137 -218 270 -39 50 -74 95 -78 100 -5 6 -19 26 -33 45 -13 19 -27 37 -30 40
-4 3 -40 52 -81 110 -40 58 -77 107 -81 108 -5 2 -8 10 -8 18 0 8 -4 14 -9 14
-5 0 -11 8 -14 18 -4 9 -31 52 -62 95 -30 42 -55 82 -55 87 0 6 -4 10 -9 10
-5 0 -11 8 -15 18 -3 9 -24 44 -46 77 -34 52 -166 267 -195 317 -89 153 -155
273 -155 280 0 4 -5 8 -10 8 -6 0 -9 3 -8 8 2 4 -11 32 -28 62 -17 30 -42 78
-57 105 -32 58 -204 408 -252 510 -17 39 -44 96 -59 129 -15 32 -42 93 -60
135 -18 42 -42 96 -53 121 -11 25 -39 91 -62 147 -40 95 -46 104 -84 122 -46
22 -182 56 -262 66 -27 4 -63 9 -80 11 -54 9 -229 12 -250 4z m293 -787 c-2
-9 229 -470 242 -483 3 -3 13 -21 22 -40 9 -19 35 -66 58 -105 22 -38 48 -87
57 -107 10 -21 21 -38 25 -38 5 0 8 -4 8 -9 0 -17 245 -419 263 -432 5 -3 8
-9 8 -13 -1 -5 166 -263 179 -276 3 -3 21 -27 39 -55 19 -27 37 -52 40 -55 4
-3 26 -34 50 -70 25 -36 47 -67 50 -70 17 -15 71 -90 71 -99 0 -5 4 -11 8 -13
5 -1 66 -75 137 -163 70 -88 139 -170 152 -182 12 -12 23 -25 23 -28 0 -3 10
-16 23 -29 12 -13 51 -56 87 -97 81 -92 456 -467 533 -534 32 -27 71 -62 87
-76 16 -14 50 -44 76 -65 26 -21 59 -49 73 -61 14 -12 52 -42 84 -68 61 -50
65 -59 41 -93 -8 -12 -12 -22 -8 -22 4 0 1 -6 -8 -12 -15 -13 -86 -170 -92
-205 -2 -10 -7 -36 -11 -58 -4 -22 -9 -47 -10 -55 -1 -8 -5 -28 -8 -45 -4 -16
-9 -45 -12 -62 -3 -18 -8 -48 -11 -65 -3 -18 -7 -44 -9 -58 -4 -30 -13 -87
-21 -137 -10 -64 -31 -237 -40 -323 -1 -14 -3 -25 -3 -25 -1 0 -4 -28 -6 -63
-2 -35 -6 -95 -10 -135 -3 -40 -8 -94 -10 -122 -20 -234 -20 -844 0 -1065 3
-30 7 -89 10 -130 3 -41 7 -101 10 -133 l5 -57 -45 2 c-25 2 -45 5 -45 8 0 3
-16 7 -37 8 -20 2 -40 5 -44 8 -4 2 -26 7 -49 10 -48 7 -75 12 -75 14 0 1 -16
3 -35 6 -19 2 -48 6 -65 9 -16 3 -43 8 -60 10 -16 2 -45 6 -62 9 -62 11 -88
15 -133 20 -25 3 -56 8 -70 10 -29 6 -92 13 -175 22 -33 3 -71 7 -85 10 -14 2
-52 6 -85 10 -33 3 -76 8 -95 10 -19 2 -71 7 -115 10 -44 3 -102 7 -130 9 -98
8 -221 15 -301 19 -44 1 -86 6 -92 10 -6 3 -13 2 -17 -4 -4 -6 -11 -8 -16 -5
-10 7 -207 14 -396 14 l-112 1 1 154 c0 84 -2 159 -6 165 -4 6 -2 20 4 31 6
11 7 20 3 20 -4 0 -9 66 -9 148 -1 116 -9 323 -15 387 0 6 0 21 0 35 2 25 -4
133 -14 265 -3 39 -6 78 -6 87 0 10 -4 20 -8 23 -9 5 -91 -79 -91 -93 0 -6 -7
-13 -16 -16 -8 -3 -12 -10 -9 -16 3 -5 3 -10 -2 -10 -4 0 -24 -24 -43 -53 -19
-28 -38 -54 -41 -57 -4 -3 -21 -32 -40 -65 -18 -33 -39 -66 -46 -73 -7 -7 -13
-20 -13 -28 0 -8 -4 -14 -9 -14 -5 0 -12 -14 -16 -30 -4 -16 -10 -30 -13 -30
-4 0 -18 -24 -32 -53 -14 -28 -27 -54 -30 -57 -3 -3 -14 -23 -25 -45 -11 -22
-29 -56 -40 -75 -31 -54 -35 -102 -22 -285 3 -44 9 -136 12 -205 l6 -125 -38
-1 c-84 -2 -498 -30 -498 -34 0 -2 -129 -12 -167 -14 -21 0 -38 -3 -38 -6 0
-3 -12 -5 -27 -5 -32 -1 -161 -14 -189 -19 -11 -2 -48 -7 -84 -11 -36 -4 -67
-8 -70 -10 -3 -1 -30 -6 -61 -9 -31 -4 -67 -9 -80 -11 -25 -5 -76 -13 -130
-20 -19 -3 -45 -7 -59 -10 -14 -3 -45 -8 -69 -11 -24 -2 -47 -6 -50 -9 -4 -2
-30 -7 -57 -11 -27 -3 -51 -8 -54 -9 -3 -2 -26 -6 -50 -10 -25 -3 -52 -8 -60
-10 -8 -2 -31 -7 -50 -11 -19 -3 -39 -7 -45 -8 -11 -3 -70 -15 -95 -20 -8 -2
-26 -6 -40 -9 -14 -4 -36 -9 -50 -11 -14 -2 -47 -10 -75 -16 -27 -6 -61 -14
-75 -16 -14 -3 -33 -7 -42 -10 -9 -3 -26 -7 -38 -9 -12 -2 -30 -7 -41 -10 -24
-8 -24 -12 5 76 52 157 113 383 120 444 1 12 5 26 9 32 4 6 8 27 9 47 2 20 7
36 11 36 5 0 6 3 4 8 -3 4 3 50 13 102 10 52 21 118 25 145 3 28 10 77 15 110
5 33 12 92 15 130 4 39 9 90 11 115 18 189 18 619 -1 805 -2 22 -6 69 -9 105
-4 36 -9 81 -12 100 -2 19 -7 55 -10 80 -3 25 -10 72 -15 105 -6 33 -13 74
-15 90 -2 17 -6 41 -9 55 -3 14 -7 34 -9 45 -6 29 -20 99 -22 108 -1 4 -2 8
-3 10 -2 1 -4 19 -7 39 -4 32 -1 39 28 59 18 13 38 27 43 31 30 23 103 81 121
96 11 9 36 28 54 42 18 14 44 35 59 48 14 13 42 35 61 50 19 15 40 32 45 38 6
5 44 39 85 75 41 35 80 69 86 74 6 6 51 46 99 90 135 122 478 466 600 600 59
66 117 129 129 141 12 11 37 41 58 65 36 44 60 72 101 119 26 29 189 229 232
284 17 21 35 44 40 50 6 6 26 33 45 59 19 27 45 59 58 73 13 13 19 24 15 24
-4 0 -3 4 3 8 5 4 23 25 39 47 17 22 32 42 35 45 3 3 16 22 30 42 14 21 28 38
33 38 4 0 7 7 7 15 0 8 4 15 9 15 5 0 12 8 15 18 4 10 14 27 24 38 17 19 70
95 183 264 35 52 67 97 72 98 4 2 7 8 7 13 0 11 92 153 103 157 4 2 7 10 7 18
0 8 5 14 12 14 6 0 9 3 6 6 -5 5 22 54 50 89 17 23 82 137 82 146 0 5 4 9 8 9
5 0 15 12 23 27 8 16 40 72 72 126 31 53 57 101 57 106 0 8 9 14 28 20 1 1 1
-2 0 -6z"/>
</g>
</svg>
